<?xml version="1.0" encoding="UTF-8" standalone="no"?>
<svg
   xmlns:dc="http://purl.org/dc/elements/1.1/"
   xmlns:cc="http://creativecommons.org/ns#"
   xmlns:rdf="http://www.w3.org/1999/02/22-rdf-syntax-ns#"
   xmlns:svg="http://www.w3.org/2000/svg"
   xmlns="http://www.w3.org/2000/svg"
   xmlns:sodipodi="http://sodipodi.sourceforge.net/DTD/sodipodi-0.dtd"
   xmlns:inkscape="http://www.inkscape.org/namespaces/inkscape"
   viewBox="0 0 348 348"
   fill="none"
   version="1.1"
   id="svg6"
   sodipodi:docname="Saimoe Pad.svg"
   inkscape:version="1.0.1 (3bc2e813f5, 2020-09-07)">
  <metadata
     id="metadata12">
    <rdf:RDF>
      <cc:Work
         rdf:about="">
        <dc:format>image/svg+xml</dc:format>
        <dc:type
           rdf:resource="http://purl.org/dc/dcmitype/StillImage" />
      </cc:Work>
    </rdf:RDF>
  </metadata>
  <defs
     id="defs10" />
  <sodipodi:namedview
     pagecolor="#ffffff"
     bordercolor="#666666"
     borderopacity="1"
     objecttolerance="10"
     gridtolerance="10"
     guidetolerance="10"
     inkscape:pageopacity="0"
     inkscape:pageshadow="2"
     inkscape:window-width="1366"
     inkscape:window-height="705"
     id="namedview8"
     showgrid="false"
     inkscape:zoom="1.545977"
     inkscape:cx="174"
     inkscape:cy="195.85225"
     inkscape:window-x="-8"
     inkscape:window-y="-8"
     inkscape:window-maximized="1"
     inkscape:current-layer="svg6" />
  <path
     d="M5.079 5.776h336.913v337.67H5.08z"
     stroke-width="2"
     stroke="#000"
     id="path2" />
  <path
     d="M282.734 40.554c0-8.376 6.966-15.165 15.56-15.165 4.126 0 8.084 1.597 11.001 4.441 2.918 2.844 4.558 6.702 4.558 10.724 0 8.376-6.966 15.165-15.56 15.165-8.593 0-15.559-6.79-15.559-15.165z"
     stroke-width="2"
     stroke="#000"
     id="path4" />
  <path
     sodipodi:type="star"
     style="fill:#000000;fill-opacity:1;stroke:#000000;stop-color:#000000"
     id="path14"
     sodipodi:sides="4"
     sodipodi:cx="199.22678"
     sodipodi:cy="150.71375"
     sodipodi:r1="84.775551"
     sodipodi:r2="59.94537"
     sodipodi:arg1="1.5402715"
     sodipodi:arg2="2.3256696"
     inkscape:flatsided="true"
     inkscape:rounded="0.82"
     inkscape:randomized="0"
     d="m 201.81413,235.4498 c -98.2646,3.00045 -84.32297,16.11591 -87.32341,-82.1487 -3.00044,-98.264602 -16.115905,-84.322971 82.1487,-87.323413 98.2646,-3.000442 84.32297,-16.115903 87.32341,82.148703 3.00045,98.2646 16.11591,84.32297 -82.1487,87.32341 z"
     transform="matrix(1.382213,0.04258087,-0.04258087,1.382213,-127.29833,-14.987652)" />
</svg>
